<svg xmlns="http://www.w3.org/2000/svg" xmlns:xlink="http://www.w3.org/1999/xlink" viewBox="0 0 32 32" width="97" height="97" style="" filter="none">
    
    <g>
    <path d="M28.768 18.144c-1.984-0.96-3.936-1.92-5.92-2.912-0.163-0.104-0.301-0.232-0.413-0.38l-0.003-0.004c-0.288-0.416-0.608-0.832-0.928-1.28 0.736-0.48 1.472-0.992 2.208-1.472 0.608-0.416 1.216-0.8 1.792-1.216 0.352-0.224 0.544-0.544 0.448-0.96-0.064-0.384-0.32-0.672-0.736-0.704-0.224 0-0.512 0.096-0.736 0.224-1.344 0.896-2.688 1.792-4.064 2.72-0.096 0.032-0.16 0.096-0.288 0.192 0.16-0.448 0.352-0.864 0.416-1.28 0.256-1.376-0.192-2.56-1.024-3.648-0.128-0.192-0.16-0.32-0.064-0.544 0.32-0.928 0.736-1.76 1.472-2.464 0.395-0.376 0.931-0.608 1.521-0.608 0.005 0 0.011 0 0.016 0h-0.001c0.576 0 0.96-0.384 0.96-0.896 0-0.48-0.448-0.928-0.992-0.896-1.44 0.032-2.56 0.64-3.392 1.792-0.48 0.672-0.864 1.408-1.312 2.144-0.544-0.224-1.12-0.352-1.728-0.352s-1.184 0.128-1.728 0.352c-0.448-0.736-0.832-1.472-1.312-2.144-0.832-1.152-1.952-1.76-3.392-1.792-0.544-0.032-0.992 0.416-0.992 0.896-0.032 0.512 0.384 0.896 0.96 0.896 0.608 0 1.088 0.224 1.536 0.608 0.704 0.672 1.152 1.536 1.472 2.464 0.096 0.224 0.064 0.352-0.064 0.544-0.832 1.056-1.28 2.272-1.024 3.616 0.064 0.448 0.256 0.832 0.416 1.312-0.128-0.096-0.224-0.16-0.32-0.224l-4.032-2.688c-0.224-0.128-0.512-0.224-0.736-0.224-0.416 0.032-0.672 0.32-0.736 0.704-0.096 0.416 0.096 0.736 0.416 0.96 0.608 0.384 1.216 0.8 1.824 1.184 0.433 0.318 1.153 0.813 1.88 1.298l0.328 0.206c-0.32 0.448-0.64 0.864-0.96 1.28-0.096 0.16-0.224 0.288-0.384 0.384 0.935-0.341-1.007 0.632-2.956 1.592l-2.964 1.32c-0.992 0.48-0.768 0.352-0.8 1.312-0.032 0.224 0.096 0.384 0.256 0.48 0.132 0.093 0.296 0.148 0.473 0.148 0.156 0 0.302-0.043 0.427-0.118l-0.004 0.002c0.192-0.096 0.352-0.192 0.544-0.288 1.376-0.704 2.752-1.376 4.096-2.048-0.128 0.96-0.32 1.888-0.384 2.848-0.032 0.48-0.16 0.832-0.448 1.216l-2.976 4.032c-0.352 0.448-0.288 1.024 0.128 1.312 0.416 0.32 0.992 0.224 1.312-0.224 0.288-0.352 0.576-0.736 0.864-1.12 0.48-0.608 0.96-1.248 1.472-1.92 0.128 0.384 0.224 0.736 0.352 1.056 0.768 2.048 1.984 3.744 3.872 4.896 0.672 0.384 0.672 0.384 1.216-0.16 0.928-0.96 1.376-2.080 1.376-3.424v-10.592c0-0.608 0.352-0.928 0.896-0.928h0.16c0.576 0 0.896 0.32 0.896 0.928v10.592c0 1.344 0.448 2.464 1.376 3.424 0.544 0.544 0.544 0.544 1.216 0.16 1.888-1.152 3.104-2.848 3.872-4.896 0.128-0.32 0.224-0.672 0.352-1.056 0.512 0.672 0.992 1.312 1.472 1.92 0.288 0.384 0.576 0.768 0.864 1.12 0.352 0.448 0.896 0.544 1.312 0.224 0.416-0.288 0.48-0.864 0.16-1.312-0.992-1.344-1.984-2.72-3.008-4.032-0.264-0.332-0.429-0.753-0.448-1.212l-0-0.004c-0.064-0.96-0.224-1.888-0.352-2.848 1.312 0.672 2.688 1.344 4.064 2.048 0.192 0.096 0.352 0.192 0.544 0.288 0.32 0.16 0.608 0.16 0.896-0.032 0.172-0.080 0.289-0.252 0.289-0.451 0-0.010-0-0.021-0.001-0.031l0 0.001c-0.032-0.96 0.192-0.832-0.8-1.312zM16.896 10.944c-0.006 0.422-0.346 0.762-0.767 0.768h-0.257c-0.422-0.006-0.762-0.346-0.768-0.767v-1.665c0-0.416 0.352-0.768 0.768-0.768h0.256c0.416 0 0.768 0.352 0.768 0.768v1.664z" fill="rgba(16,16,16,1)"></path>
    </g>
  </svg>