<svg xmlns="http://www.w3.org/2000/svg" viewBox="0 0 64 64" role="img" aria-label="CW">
  <rect width="64" height="64" rx="14" fill="#191919"/>
  <path d="M18.5 42.5c-6.4 0-10.5-4.3-10.5-10.5s4.1-10.5 10.5-10.5c3.4 0 6.1 1.2 8.1 3.5l-3.2 3.1c-1.2-1.3-2.7-2-4.6-2-3.3 0-5.4 2.4-5.4 5.9s2.1 5.9 5.4 5.9c2 0 3.5-.7 4.8-2.2l3.2 3c-2 2.5-4.8 3.8-8.3 3.8Z" fill="#f6f6f4"/>
  <path d="M31.1 22h5.2l3.1 13.1L43.1 22h4.5l3.7 13.1L54.4 22h5.1l-5.7 20h-4.9l-3.6-12.1L41.6 42h-4.9l-5.6-20Z" fill="#f04d2f"/>
</svg>
